<?xml version="1.0" encoding="utf-8"?>
<!-- Generator: Adobe Illustrator 19.0.0, SVG Export Plug-In . SVG Version: 6.00 Build 0)  -->
<svg version="1.1" id="Layer_1" xmlns="http://www.w3.org/2000/svg" xmlns:xlink="http://www.w3.org/1999/xlink" x="0px" y="0px"
	 viewBox="-215 372 180 50" style="enable-background:new -215 372 180 50;" xml:space="preserve">
<style type="text/css">
	.st0{fill:url(#XMLID_2_);}
	.st1{fill:url(#XMLID_10_);}
	.st2{fill:url(#XMLID_24_);}
	.st3{fill:url(#XMLID_25_);}
	.st4{fill:url(#XMLID_26_);}
	.st5{fill:url(#XMLID_28_);}
	.st6{fill:url(#XMLID_29_);}
	.st7{fill:url(#XMLID_31_);}
	.st8{fill:url(#XMLID_33_);}
	.st9{fill:url(#XMLID_34_);}
	.st10{fill:url(#XMLID_36_);}
	.st11{fill:url(#XMLID_38_);}
	.st12{fill:url(#XMLID_39_);}
	.st13{fill:url(#XMLID_41_);}
	.st14{fill:url(#XMLID_43_);}
	.st15{fill:url(#XMLID_45_);}
	.st16{fill:url(#XMLID_47_);}
	.st17{fill:url(#XMLID_48_);}
	.st18{fill:url(#XMLID_50_);}
	.st19{fill:url(#XMLID_52_);}
	.st20{fill:url(#XMLID_53_);}
	.st21{fill:url(#XMLID_55_);}
	.st22{fill:url(#XMLID_57_);}
	.st23{fill:url(#XMLID_58_);}
	.st24{fill:url(#XMLID_60_);}
	.st25{fill:url(#XMLID_62_);}
	.st26{fill:url(#XMLID_63_);}
	.st27{fill:url(#XMLID_65_);}
	.st28{fill:url(#XMLID_66_);}
	.st29{fill:url(#XMLID_68_);}
	.st30{fill:url(#XMLID_70_);}
	.st31{fill:url(#XMLID_72_);}
	.st32{fill:#FFFFFF;stroke:#000000;stroke-miterlimit:10;}
	.st33{fill:url(#XMLID_73_);}
	.st34{fill:url(#XMLID_74_);}
	.st35{fill:url(#XMLID_76_);}
	.st36{fill:url(#XMLID_78_);}
	.st37{fill:url(#XMLID_80_);}
	.st38{fill:url(#XMLID_81_);}
	.st39{fill:url(#XMLID_83_);}
	.st40{fill:url(#XMLID_84_);}
	.st41{fill:url(#XMLID_85_);}
	.st42{fill:url(#XMLID_87_);}
	.st43{fill:url(#XMLID_88_);}
	.st44{fill:url(#XMLID_89_);}
	.st45{fill:url(#XMLID_91_);}
	.st46{fill:url(#XMLID_92_);}
</style>
<g id="XMLID_3_">
	<g id="XMLID_19_">
		
			<linearGradient id="XMLID_2_" gradientUnits="userSpaceOnUse" x1="-179.1" y1="417.95" x2="-179.1" y2="391.1498" gradientTransform="matrix(1 0 0 -1 0 796)">
			<stop  offset="0" style="stop-color:#129D37"/>
			<stop  offset="0.5025" style="stop-color:#007F37"/>
			<stop  offset="1" style="stop-color:#006837"/>
		</linearGradient>
		<path id="XMLID_21_" class="st0" d="M-187.9,404.9v-26.8h6.6c2.9,0,5.1,0.6,6.7,1.7c1,0.7,1.7,1.7,2.3,2.9c0.5,1,0.8,2.1,0.8,3.2
			c0,0.9-0.2,1.7-0.5,2.4s-0.9,1.4-1.6,2.2c2.2,1.7,3.3,3.8,3.3,6.2c0,2.5-1,4.5-3.1,6.2c-0.9,0.7-1.9,1.2-2.9,1.5s-2.3,0.5-3.8,0.5
			L-187.9,404.9L-187.9,404.9z M-181.8,388.7h1c0.8,0,1.4,0,1.8-0.1s0.7-0.3,1-0.5c0.5-0.5,0.7-1.1,0.7-1.9c0-1.8-0.9-2.5-3.5-2.5
			h-1V388.7z M-181.8,399.1h1.5c1.7,0,2.4-0.2,3.1-0.7c0.5-0.5,0.8-1.1,0.8-1.9c0-1-0.3-1.7-1-2.1c-0.6-0.4-1.7-0.6-3.2-0.6h-1.2
			L-181.8,399.1L-181.8,399.1z"/>
		
			<linearGradient id="XMLID_10_" gradientUnits="userSpaceOnUse" x1="-156.85" y1="417.9626" x2="-156.85" y2="390.437" gradientTransform="matrix(1 0 0 -1 0 796)">
			<stop  offset="0" style="stop-color:#129D37"/>
			<stop  offset="0.5025" style="stop-color:#007F37"/>
			<stop  offset="1" style="stop-color:#006837"/>
		</linearGradient>
		<path id="XMLID_75_" class="st1" d="M-160.8,378.1v16.4c0,1.8,0.2,2.9,0.5,3.5c0.6,0.9,2,1.6,3.4,1.6s2.8-0.7,3.4-1.6
			c0.3-0.6,0.5-1.7,0.5-3.5v-16.4h6.3v17.1c0,2.9-0.6,4.8-1.9,6.6c-1,1.3-2.3,2.3-3.8,2.9c-1.4,0.6-2.9,0.9-4.5,0.9
			c-2.3,0-4.3-0.6-6.1-1.9c-2.8-1.9-4-4.5-4-8.6V378L-160.8,378.1L-160.8,378.1z"/>
		
			<linearGradient id="XMLID_24_" gradientUnits="userSpaceOnUse" x1="-129" y1="417.95" x2="-129" y2="391.15" gradientTransform="matrix(1 0 0 -1 0 796)">
			<stop  offset="0" style="stop-color:#129D37"/>
			<stop  offset="0.5025" style="stop-color:#007F37"/>
			<stop  offset="1" style="stop-color:#006837"/>
		</linearGradient>
		<path id="XMLID_77_" class="st2" d="M-142,404.9v-26.8h5.7l7.3,13.2l7.3-13.2h5.7v26.8h-6.3v-13.5l-4.6,8.3h-4.4l-4.6-8.3v13.5
			H-142z"/>
		
			<linearGradient id="XMLID_25_" gradientUnits="userSpaceOnUse" x1="-100.8" y1="417.95" x2="-100.8" y2="391.15" gradientTransform="matrix(1 0 0 -1 0 796)">
			<stop  offset="0" style="stop-color:#129D37"/>
			<stop  offset="0.5025" style="stop-color:#007F37"/>
			<stop  offset="1" style="stop-color:#006837"/>
		</linearGradient>
		<path id="XMLID_79_" class="st3" d="M-96.2,399.3h-9.3l-1.8,5.6h-6.6l9.6-26.8h7l9.6,26.8h-6.7L-96.2,399.3z M-98.2,393.3
			l-2.7-8.2l-2.7,8.2H-98.2z"/>
		
			<linearGradient id="XMLID_26_" gradientUnits="userSpaceOnUse" x1="-77" y1="417.95" x2="-77" y2="391.1498" gradientTransform="matrix(1 0 0 -1 0 796)">
			<stop  offset="0" style="stop-color:#129D37"/>
			<stop  offset="0.5025" style="stop-color:#007F37"/>
			<stop  offset="1" style="stop-color:#006837"/>
		</linearGradient>
		<path id="XMLID_82_" class="st4" d="M-85.8,404.9v-26.8h6.6c2.9,0,5.1,0.6,6.7,1.7c1,0.7,1.7,1.7,2.3,2.9c0.5,1,0.8,2.1,0.8,3.2
			c0,0.9-0.2,1.7-0.5,2.4s-0.9,1.4-1.6,2.2c2.2,1.7,3.3,3.8,3.3,6.2c0,2.5-1,4.5-3.1,6.2c-0.9,0.7-1.9,1.2-2.9,1.5s-2.3,0.5-3.8,0.5
			L-85.8,404.9L-85.8,404.9z M-79.8,388.7h1c0.8,0,1.4,0,1.8-0.1c0.4-0.1,0.7-0.3,1-0.5c0.5-0.5,0.7-1.1,0.7-1.9
			c0-1.8-0.9-2.5-3.5-2.5h-1V388.7z M-79.8,399.1h1.5c1.7,0,2.4-0.2,3.1-0.7c0.5-0.5,0.8-1.1,0.8-1.9c0-1-0.3-1.7-1-2.1
			c-0.6-0.4-1.7-0.6-3.2-0.6h-1.2L-79.8,399.1L-79.8,399.1z"/>
		
			<linearGradient id="XMLID_28_" gradientUnits="userSpaceOnUse" x1="-54.7" y1="417.95" x2="-54.7" y2="391.15" gradientTransform="matrix(1 0 0 -1 0 796)">
			<stop  offset="0" style="stop-color:#129D37"/>
			<stop  offset="0.5025" style="stop-color:#007F37"/>
			<stop  offset="1" style="stop-color:#006837"/>
		</linearGradient>
		<path id="XMLID_86_" class="st5" d="M-50.1,399.3h-9.3l-1.8,5.6h-6.6l9.6-26.8h7l9.6,26.8h-6.7L-50.1,399.3z M-52.1,393.3
			l-2.7-8.2l-2.7,8.2H-52.1z"/>
	</g>
	<g id="XMLID_22_">
		
			<linearGradient id="XMLID_29_" gradientUnits="userSpaceOnUse" x1="-185.35" y1="388.75" x2="-185.35" y2="379.8105" gradientTransform="matrix(1 0 0 -1 0 796)">
			<stop  offset="0" style="stop-color:#FAC223"/>
			<stop  offset="0.3568" style="stop-color:#FAC223"/>
			<stop  offset="1" style="stop-color:#F0811E"/>
		</linearGradient>
		<path id="XMLID_23_" class="st6" d="M-187.8,416.2v-8.9h1.8c0.8,0,1.5,0.2,1.9,0.6c0.5,0.4,0.8,1.2,0.8,2c0,0.6-0.2,1.2-0.6,1.7
			c0.1,0.1,0.2,0.2,0.3,0.2c0.2,0.2,0.4,0.5,0.5,0.9c0.1,0.3,0.2,0.7,0.2,1.1c0,0.8-0.3,1.5-0.8,2c-0.3,0.2-0.5,0.4-0.8,0.5
			s-0.6,0.1-1.1,0.1h-2.2V416.2z M-186.5,411h0.6c0.3,0,0.5,0,0.6-0.1c0.1,0,0.3-0.1,0.4-0.2c0.2-0.2,0.3-0.5,0.3-0.9
			s-0.1-0.7-0.3-0.9c-0.2-0.2-0.5-0.2-1-0.2h-0.6V411z M-186.5,414.8h0.7c0.3,0,0.5,0,0.7-0.1c0.2,0,0.3-0.1,0.4-0.2
			c0.2-0.2,0.4-0.5,0.4-0.9s-0.2-0.8-0.5-1c-0.2-0.2-0.6-0.2-1.1-0.2h-0.6V414.8z"/>
		
			<linearGradient id="XMLID_31_" gradientUnits="userSpaceOnUse" x1="-179.7" y1="385.9602" x2="-179.7" y2="379.6208" gradientTransform="matrix(1 0 0 -1 0 796)">
			<stop  offset="0" style="stop-color:#FAC223"/>
			<stop  offset="0.3568" style="stop-color:#FAC223"/>
			<stop  offset="1" style="stop-color:#F0811E"/>
		</linearGradient>
		<path id="XMLID_27_" class="st7" d="M-177,416.2h-1.3v-0.4c-0.4,0.4-0.9,0.6-1.4,0.6c-0.8,0-1.4-0.3-2-1c-0.5-0.6-0.7-1.3-0.7-2.1
			c0-1,0.3-1.7,0.9-2.4c0.5-0.5,1.1-0.8,1.8-0.8c0.5,0,0.9,0.2,1.4,0.6v-0.4h1.3L-177,416.2L-177,416.2z M-180.7,412.1
			c-0.2,0.3-0.3,0.7-0.3,1.2c0,0.6,0.1,1,0.4,1.3s0.6,0.5,1,0.5s0.8-0.2,1.1-0.6c0.2-0.3,0.3-0.7,0.3-1.2s-0.1-1-0.4-1.3
			s-0.6-0.5-1-0.5C-180.1,411.5-180.4,411.7-180.7,412.1z"/>
		
			<linearGradient id="XMLID_33_" gradientUnits="userSpaceOnUse" x1="-173.35" y1="385.9602" x2="-173.35" y2="379.8172" gradientTransform="matrix(1 0 0 -1 0 796)">
			<stop  offset="0" style="stop-color:#FAC223"/>
			<stop  offset="0.3568" style="stop-color:#FAC223"/>
			<stop  offset="1" style="stop-color:#F0811E"/>
		</linearGradient>
		<path id="XMLID_30_" class="st8" d="M-174.4,410.6c0.4-0.3,0.8-0.5,1.2-0.5c0.6,0,1.2,0.3,1.6,0.8s0.6,1.1,0.6,2.2v3.2h-1.3v-3.1
			c0-0.7-0.1-1.1-0.3-1.3c-0.2-0.2-0.4-0.3-0.7-0.3c-0.4,0-0.7,0.1-0.9,0.4c-0.2,0.2-0.2,0.7-0.2,1.4v3h-1.3v-5.9L-174.4,410.6
			L-174.4,410.6L-174.4,410.6z"/>
		
			<linearGradient id="XMLID_34_" gradientUnits="userSpaceOnUse" x1="-167.6001" y1="385.9602" x2="-167.6001" y2="376.4903" gradientTransform="matrix(1 0 0 -1 0 796)">
			<stop  offset="0" style="stop-color:#FAC223"/>
			<stop  offset="0.3568" style="stop-color:#FAC223"/>
			<stop  offset="1" style="stop-color:#F0811E"/>
		</linearGradient>
		<path id="XMLID_32_" class="st9" d="M-166.2,415.9c-0.3,0.2-0.5,0.4-0.7,0.5s-0.4,0.1-0.7,0.1c-0.8,0-1.4-0.3-2-1
			c-0.5-0.6-0.7-1.3-0.7-2.1c0-1,0.3-1.7,0.9-2.4c0.5-0.5,1.1-0.8,1.8-0.8c0.3,0,0.5,0,0.7,0.1s0.4,0.2,0.7,0.5v-0.4h1.3v6.1
			c0,0.9-0.2,1.6-0.6,2.1c-0.5,0.7-1.2,1.1-2.1,1.1c-0.7,0-1.3-0.2-1.8-0.7c-0.1-0.1-0.4-0.4-0.7-0.8l0.9-1c0.1,0.1,0.2,0.2,0.2,0.3
			c0.2,0.3,0.4,0.5,0.6,0.6c0.3,0.2,0.5,0.3,0.9,0.3c0.9,0,1.4-0.7,1.4-1.8L-166.2,415.9L-166.2,415.9z M-168.6,412.1
			c-0.2,0.3-0.3,0.7-0.3,1.2c0,0.6,0.1,1,0.4,1.3s0.6,0.5,1,0.5s0.8-0.2,1.1-0.6c0.2-0.3,0.3-0.7,0.3-1.2c0-0.6-0.1-1-0.4-1.3
			c-0.2-0.3-0.6-0.5-1-0.5C-168,411.5-168.3,411.7-168.6,412.1z"/>
		
			<linearGradient id="XMLID_36_" gradientUnits="userSpaceOnUse" x1="-161.2" y1="388.7567" x2="-161.2" y2="379.8172" gradientTransform="matrix(1 0 0 -1 0 796)">
			<stop  offset="0" style="stop-color:#FAC223"/>
			<stop  offset="0.3568" style="stop-color:#FAC223"/>
			<stop  offset="1" style="stop-color:#F0811E"/>
		</linearGradient>
		<path id="XMLID_35_" class="st10" d="M-161,412.8l2.3,3.4h-1.6l-1.6-2.4l-0.5,0.6v1.9h-1.3v-8.9h1.3v5.1l1.8-2.1h1.7L-161,412.8z"
			/>
		
			<linearGradient id="XMLID_38_" gradientUnits="userSpaceOnUse" x1="-157.5" y1="388.7173" x2="-157.5" y2="379.8174" gradientTransform="matrix(1 0 0 -1 0 796)">
			<stop  offset="0" style="stop-color:#FAC223"/>
			<stop  offset="0.3568" style="stop-color:#FAC223"/>
			<stop  offset="1" style="stop-color:#F0811E"/>
		</linearGradient>
		<path id="XMLID_37_" class="st11" d="M-156.9,407.6c0.2,0.2,0.2,0.4,0.2,0.7s-0.1,0.5-0.2,0.7c-0.2,0.2-0.4,0.3-0.6,0.3
			s-0.4-0.1-0.6-0.3s-0.2-0.4-0.2-0.7s0.1-0.5,0.2-0.7c0.2-0.2,0.4-0.3,0.6-0.3C-157.3,407.3-157.1,407.4-156.9,407.6z
			 M-156.9,410.3v5.9h-1.3v-5.9H-156.9z"/>
		
			<linearGradient id="XMLID_39_" gradientUnits="userSpaceOnUse" x1="-154.75" y1="387.6368" x2="-154.75" y2="379.7059" gradientTransform="matrix(1 0 0 -1 0 796)">
			<stop  offset="0" style="stop-color:#FAC223"/>
			<stop  offset="0.3568" style="stop-color:#FAC223"/>
			<stop  offset="1" style="stop-color:#F0811E"/>
		</linearGradient>
		<path id="XMLID_40_" class="st12" d="M-154.3,411.7v2.7c0,0.4,0.1,0.6,0.3,0.6c0.1,0,0.3-0.1,0.6-0.2v1.4
			c-0.3,0.1-0.5,0.2-0.8,0.2c-0.9,0-1.4-0.7-1.4-2v-2.7h-0.5v-1.4h0.5V409l1.3-0.6v1.9h0.8v1.4L-154.3,411.7L-154.3,411.7z"/>
		
			<linearGradient id="XMLID_41_" gradientUnits="userSpaceOnUse" x1="-146.85" y1="388.7567" x2="-146.85" y2="379.6208" gradientTransform="matrix(1 0 0 -1 0 796)">
			<stop  offset="0" style="stop-color:#FAC223"/>
			<stop  offset="0.3568" style="stop-color:#FAC223"/>
			<stop  offset="1" style="stop-color:#F0811E"/>
		</linearGradient>
		<path id="XMLID_42_" class="st13" d="M-148.4,407.3v5.5c0,0.4,0,0.7,0,0.9s0.1,0.4,0.2,0.5c0.1,0.2,0.3,0.4,0.5,0.5
			s0.5,0.2,0.8,0.2s0.5-0.1,0.8-0.2c0.2-0.1,0.4-0.3,0.5-0.5c0.1-0.1,0.1-0.3,0.2-0.5c0-0.2,0-0.5,0-0.9v-5.5h1.4v5.7
			c0,1-0.2,1.6-0.5,2.1c-0.3,0.4-0.6,0.7-1.1,0.9c-0.4,0.2-0.8,0.3-1.3,0.3c-0.6,0-1.2-0.2-1.7-0.6c-0.8-0.6-1.1-1.4-1.1-2.8v-5.7
			L-148.4,407.3L-148.4,407.3z"/>
		
			<linearGradient id="XMLID_43_" gradientUnits="userSpaceOnUse" x1="-141" y1="385.9602" x2="-141" y2="379.6208" gradientTransform="matrix(1 0 0 -1 0 796)">
			<stop  offset="0" style="stop-color:#FAC223"/>
			<stop  offset="0.3568" style="stop-color:#FAC223"/>
			<stop  offset="1" style="stop-color:#F0811E"/>
		</linearGradient>
		<path id="XMLID_44_" class="st14" d="M-140.2,412.1c-0.3-0.5-0.5-0.6-0.8-0.6s-0.5,0.2-0.5,0.5c0,0.1,0,0.2,0.1,0.3
			s0.2,0.2,0.5,0.3l0.5,0.2c0.3,0.2,0.6,0.3,0.8,0.5c0.3,0.3,0.5,0.7,0.5,1.2c0,0.6-0.2,1.1-0.6,1.5c-0.4,0.4-0.8,0.5-1.3,0.5
			c-0.7,0-1.2-0.3-1.6-0.9c-0.1-0.2-0.3-0.5-0.4-0.9l1.1-0.5c0.2,0.4,0.3,0.6,0.4,0.8c0.1,0.1,0.3,0.2,0.5,0.2
			c0.4,0,0.6-0.2,0.6-0.6c0-0.1,0-0.2-0.1-0.3s-0.3-0.2-0.5-0.3l-0.5-0.2c-0.8-0.3-1.1-0.9-1.1-1.7c0-0.6,0.2-1,0.6-1.4
			c0.3-0.3,0.8-0.5,1.2-0.5c0.8,0,1.3,0.4,1.8,1.4L-140.2,412.1z"/>
		
			<linearGradient id="XMLID_45_" gradientUnits="userSpaceOnUse" x1="-135.9" y1="385.9602" x2="-135.9" y2="379.6208" gradientTransform="matrix(1 0 0 -1 0 796)">
			<stop  offset="0" style="stop-color:#FAC223"/>
			<stop  offset="0.3568" style="stop-color:#FAC223"/>
			<stop  offset="1" style="stop-color:#F0811E"/>
		</linearGradient>
		<path id="XMLID_46_" class="st15" d="M-133.2,416.2h-1.3v-0.4c-0.4,0.4-0.9,0.6-1.4,0.6c-0.8,0-1.4-0.3-2-1
			c-0.5-0.6-0.7-1.3-0.7-2.1c0-1,0.3-1.7,0.9-2.4c0.5-0.5,1.1-0.8,1.8-0.8c0.5,0,0.9,0.2,1.4,0.6v-0.4h1.3V416.2z M-136.9,412.1
			c-0.2,0.3-0.3,0.7-0.3,1.2c0,0.6,0.1,1,0.4,1.3c0.3,0.3,0.6,0.5,1,0.5s0.8-0.2,1.1-0.6c0.2-0.3,0.3-0.7,0.3-1.2s-0.1-1-0.4-1.3
			c-0.3-0.3-0.6-0.5-1-0.5C-136.3,411.5-136.7,411.7-136.9,412.1z"/>
		
			<linearGradient id="XMLID_47_" gradientUnits="userSpaceOnUse" x1="-129.65" y1="388.7567" x2="-129.65" y2="379.8172" gradientTransform="matrix(1 0 0 -1 0 796)">
			<stop  offset="0" style="stop-color:#FAC223"/>
			<stop  offset="0.3568" style="stop-color:#FAC223"/>
			<stop  offset="1" style="stop-color:#F0811E"/>
		</linearGradient>
		<path id="XMLID_49_" class="st16" d="M-130.7,410.6c0.4-0.3,0.8-0.5,1.2-0.5c0.6,0,1.2,0.3,1.6,0.8c0.4,0.5,0.6,1.1,0.6,2.2v3.2
			h-1.3v-3.1c0-0.7-0.1-1.1-0.3-1.3s-0.4-0.3-0.7-0.3c-0.4,0-0.7,0.1-0.9,0.4c-0.2,0.2-0.2,0.7-0.2,1.4v3h-1.3v-8.9h1.3
			L-130.7,410.6L-130.7,410.6z"/>
		
			<linearGradient id="XMLID_48_" gradientUnits="userSpaceOnUse" x1="-123.8" y1="385.9602" x2="-123.8" y2="379.6208" gradientTransform="matrix(1 0 0 -1 0 796)">
			<stop  offset="0" style="stop-color:#FAC223"/>
			<stop  offset="0.3568" style="stop-color:#FAC223"/>
			<stop  offset="1" style="stop-color:#F0811E"/>
		</linearGradient>
		<path id="XMLID_51_" class="st17" d="M-121.1,416.2h-1.3v-0.4c-0.4,0.4-0.9,0.6-1.4,0.6c-0.8,0-1.4-0.3-2-1
			c-0.5-0.6-0.7-1.3-0.7-2.1c0-1,0.3-1.7,0.9-2.4c0.5-0.5,1.1-0.8,1.8-0.8c0.5,0,0.9,0.2,1.4,0.6v-0.4h1.3V416.2z M-124.9,412.1
			c-0.2,0.3-0.3,0.7-0.3,1.2c0,0.6,0.1,1,0.4,1.3c0.3,0.3,0.6,0.5,1,0.5s0.8-0.2,1.1-0.6c0.2-0.3,0.3-0.7,0.3-1.2s-0.1-1-0.4-1.3
			c-0.3-0.3-0.6-0.5-1-0.5C-124.2,411.5-124.6,411.7-124.9,412.1z"/>
		
			<linearGradient id="XMLID_50_" gradientUnits="userSpaceOnUse" x1="-113.3" y1="388.75" x2="-113.3" y2="379.8105" gradientTransform="matrix(1 0 0 -1 0 796)">
			<stop  offset="0" style="stop-color:#FAC223"/>
			<stop  offset="0.3568" style="stop-color:#FAC223"/>
			<stop  offset="1" style="stop-color:#F0811E"/>
		</linearGradient>
		<path id="XMLID_54_" class="st18" d="M-117.1,416.2v-8.9h1.3l2.5,5.2l2.5-5.2h1.3v8.9h-1.4v-5.9l-1.9,4h-1l-1.9-4v5.9H-117.1z"/>
		
			<linearGradient id="XMLID_52_" gradientUnits="userSpaceOnUse" x1="-105.8" y1="385.9602" x2="-105.8" y2="379.6208" gradientTransform="matrix(1 0 0 -1 0 796)">
			<stop  offset="0" style="stop-color:#FAC223"/>
			<stop  offset="0.3568" style="stop-color:#FAC223"/>
			<stop  offset="1" style="stop-color:#F0811E"/>
		</linearGradient>
		<path id="XMLID_56_" class="st19" d="M-103.1,416.2h-1.3v-0.4c-0.4,0.4-0.9,0.6-1.4,0.6c-0.8,0-1.4-0.3-2-1
			c-0.5-0.6-0.7-1.3-0.7-2.1c0-1,0.3-1.7,0.9-2.4c0.5-0.5,1.1-0.8,1.8-0.8c0.5,0,0.9,0.2,1.4,0.6v-0.4h1.3V416.2z M-106.8,412.1
			c-0.2,0.3-0.3,0.7-0.3,1.2c0,0.6,0.1,1,0.4,1.3c0.3,0.3,0.6,0.5,1,0.5s0.8-0.2,1.1-0.6c0.2-0.3,0.3-0.7,0.3-1.2s-0.1-1-0.4-1.3
			c-0.3-0.3-0.6-0.5-1-0.5C-106.2,411.5-106.5,411.7-106.8,412.1z"/>
		
			<linearGradient id="XMLID_53_" gradientUnits="userSpaceOnUse" x1="-99.55" y1="385.9602" x2="-99.55" y2="379.8172" gradientTransform="matrix(1 0 0 -1 0 796)">
			<stop  offset="0" style="stop-color:#FAC223"/>
			<stop  offset="0.3568" style="stop-color:#FAC223"/>
			<stop  offset="1" style="stop-color:#F0811E"/>
		</linearGradient>
		<path id="XMLID_59_" class="st20" d="M-100.6,410.6c0.4-0.3,0.8-0.5,1.2-0.5c0.6,0,1.2,0.3,1.6,0.8c0.4,0.5,0.6,1.1,0.6,2.2v3.2
			h-1.3v-3.1c0-0.7-0.1-1.1-0.3-1.3s-0.4-0.3-0.7-0.3c-0.4,0-0.7,0.1-0.9,0.4c-0.2,0.2-0.2,0.7-0.2,1.4v3h-1.3v-5.9L-100.6,410.6
			L-100.6,410.6L-100.6,410.6z"/>
		
			<linearGradient id="XMLID_55_" gradientUnits="userSpaceOnUse" x1="-93.7" y1="388.7501" x2="-93.7" y2="379.6142" gradientTransform="matrix(1 0 0 -1 0 796)">
			<stop  offset="0" style="stop-color:#FAC223"/>
			<stop  offset="0.3568" style="stop-color:#FAC223"/>
			<stop  offset="1" style="stop-color:#F0811E"/>
		</linearGradient>
		<path id="XMLID_61_" class="st21" d="M-91,416.2h-1.3v-0.4c-0.4,0.4-0.9,0.6-1.4,0.6c-0.8,0-1.4-0.3-2-1c-0.5-0.6-0.7-1.3-0.7-2.1
			c0-1,0.3-1.7,0.9-2.4c0.5-0.5,1.1-0.8,1.8-0.8c0.5,0,0.9,0.2,1.4,0.6v-3.4h1.3V416.2z M-94.7,412.1c-0.2,0.3-0.3,0.7-0.3,1.2
			c0,0.6,0.1,1,0.4,1.3c0.3,0.3,0.6,0.5,1,0.5s0.8-0.2,1.1-0.6c0.2-0.3,0.3-0.7,0.3-1.2s-0.1-1-0.4-1.3c-0.3-0.3-0.6-0.5-1-0.5
			C-94.1,411.5-94.5,411.7-94.7,412.1z"/>
		
			<linearGradient id="XMLID_57_" gradientUnits="userSpaceOnUse" x1="-89.2" y1="388.7173" x2="-89.2" y2="379.8174" gradientTransform="matrix(1 0 0 -1 0 796)">
			<stop  offset="0" style="stop-color:#FAC223"/>
			<stop  offset="0.3568" style="stop-color:#FAC223"/>
			<stop  offset="1" style="stop-color:#F0811E"/>
		</linearGradient>
		<path id="XMLID_64_" class="st22" d="M-88.6,407.6c0.2,0.2,0.2,0.4,0.2,0.7s-0.1,0.5-0.2,0.7c-0.2,0.2-0.4,0.3-0.6,0.3
			s-0.4-0.1-0.6-0.3c-0.2-0.2-0.2-0.4-0.2-0.7s0.1-0.5,0.2-0.7c0.2-0.2,0.4-0.3,0.6-0.3C-88.9,407.3-88.7,407.4-88.6,407.6z
			 M-88.5,410.3v5.9h-1.3v-5.9H-88.5z"/>
		
			<linearGradient id="XMLID_58_" gradientUnits="userSpaceOnUse" x1="-85.9" y1="385.8031" x2="-85.9" y2="379.8172" gradientTransform="matrix(1 0 0 -1 0 796)">
			<stop  offset="0" style="stop-color:#FAC223"/>
			<stop  offset="0.3568" style="stop-color:#FAC223"/>
			<stop  offset="1" style="stop-color:#F0811E"/>
		</linearGradient>
		<path id="XMLID_67_" class="st23" d="M-86,410.7c0.3-0.3,0.6-0.4,1-0.4c0.1,0,0.3,0,0.5,0v1.4c-0.2,0-0.4,0-0.5,0
			c-0.4,0-0.6,0.1-0.8,0.4c-0.1,0.3-0.2,0.7-0.2,1.4v2.9h-1.3v-5.9h1.3V410.7z"/>
		
			<linearGradient id="XMLID_60_" gradientUnits="userSpaceOnUse" x1="-83.1" y1="388.7173" x2="-83.1" y2="379.8174" gradientTransform="matrix(1 0 0 -1 0 796)">
			<stop  offset="0" style="stop-color:#FAC223"/>
			<stop  offset="0.3568" style="stop-color:#FAC223"/>
			<stop  offset="1" style="stop-color:#F0811E"/>
		</linearGradient>
		<path id="XMLID_69_" class="st24" d="M-82.5,407.6c0.2,0.2,0.2,0.4,0.2,0.7s-0.1,0.5-0.2,0.7c-0.2,0.2-0.4,0.3-0.6,0.3
			s-0.4-0.1-0.6-0.3c-0.2-0.2-0.2-0.4-0.2-0.7s0.1-0.5,0.2-0.7c0.2-0.2,0.4-0.3,0.6-0.3C-82.9,407.3-82.7,407.4-82.5,407.6z
			 M-82.5,410.3v5.9h-1.3v-5.9H-82.5z"/>
		
			<linearGradient id="XMLID_62_" gradientUnits="userSpaceOnUse" x1="-75.95" y1="388.75" x2="-75.95" y2="379.8105" gradientTransform="matrix(1 0 0 -1 0 796)">
			<stop  offset="0" style="stop-color:#FAC223"/>
			<stop  offset="0.3568" style="stop-color:#FAC223"/>
			<stop  offset="1" style="stop-color:#F0811E"/>
		</linearGradient>
		<path id="XMLID_90_" class="st25" d="M-78.4,416.2v-8.9h1.8c0.8,0,1.5,0.2,1.9,0.6c0.5,0.4,0.8,1.2,0.8,2c0,0.6-0.2,1.2-0.6,1.7
			c0.1,0.1,0.2,0.2,0.3,0.2c0.2,0.2,0.4,0.5,0.5,0.9c0.1,0.3,0.2,0.7,0.2,1.1c0,0.8-0.3,1.5-0.8,2c-0.3,0.2-0.5,0.4-0.8,0.5
			s-0.6,0.1-1.1,0.1h-2.2V416.2z M-77.1,411h0.6c0.3,0,0.5,0,0.6-0.1c0.1,0,0.3-0.1,0.4-0.2c0.2-0.2,0.3-0.5,0.3-0.9
			s-0.1-0.7-0.3-0.9s-0.5-0.2-1-0.2h-0.6V411z M-77.1,414.8h0.7c0.3,0,0.5,0,0.7-0.1c0.2,0,0.3-0.1,0.4-0.2c0.2-0.2,0.4-0.5,0.4-0.9
			s-0.2-0.8-0.5-1c-0.2-0.2-0.6-0.2-1.1-0.2h-0.6L-77.1,414.8L-77.1,414.8z"/>
		
			<linearGradient id="XMLID_63_" gradientUnits="userSpaceOnUse" x1="-70.4" y1="385.9602" x2="-70.4" y2="379.6208" gradientTransform="matrix(1 0 0 -1 0 796)">
			<stop  offset="0" style="stop-color:#FAC223"/>
			<stop  offset="0.3568" style="stop-color:#FAC223"/>
			<stop  offset="1" style="stop-color:#F0811E"/>
		</linearGradient>
		<path id="XMLID_94_" class="st26" d="M-71.5,413.8c0.1,0.3,0.2,0.6,0.3,0.8c0.3,0.3,0.6,0.5,0.9,0.5c0.4,0,0.8-0.2,1.1-0.5
			c0.1-0.1,0.1-0.2,0.3-0.4l1.1,0.5c-0.3,0.5-0.5,0.9-0.8,1.1c-0.5,0.5-1,0.7-1.7,0.7c-0.8,0-1.5-0.3-2-1c-0.4-0.6-0.7-1.3-0.7-2.1
			c0-0.6,0.1-1.1,0.3-1.6s0.6-0.9,1-1.2s0.8-0.4,1.3-0.4c0.7,0,1.3,0.3,1.8,0.9c0.5,0.6,0.7,1.4,0.7,2.4c0,0.1,0,0.2,0,0.4h-3.6
			V413.8z M-69.1,412.7c-0.2-0.8-0.6-1.3-1.2-1.3c-0.6,0-1,0.4-1.2,1.3H-69.1z"/>
		
			<linearGradient id="XMLID_65_" gradientUnits="userSpaceOnUse" x1="-65.5" y1="385.8031" x2="-65.5" y2="379.8172" gradientTransform="matrix(1 0 0 -1 0 796)">
			<stop  offset="0" style="stop-color:#FAC223"/>
			<stop  offset="0.3568" style="stop-color:#FAC223"/>
			<stop  offset="1" style="stop-color:#F0811E"/>
		</linearGradient>
		<path id="XMLID_97_" class="st27" d="M-65.6,410.7c0.3-0.3,0.6-0.4,1-0.4c0.1,0,0.3,0,0.5,0v1.4c-0.2,0-0.4,0-0.5,0
			c-0.4,0-0.6,0.1-0.8,0.4c-0.1,0.3-0.2,0.7-0.2,1.4v2.9h-1.3v-5.9h1.3V410.7z"/>
		
			<linearGradient id="XMLID_66_" gradientUnits="userSpaceOnUse" x1="-61.7" y1="385.9602" x2="-61.7" y2="379.6208" gradientTransform="matrix(1 0 0 -1 0 796)">
			<stop  offset="0" style="stop-color:#FAC223"/>
			<stop  offset="0.3568" style="stop-color:#FAC223"/>
			<stop  offset="1" style="stop-color:#F0811E"/>
		</linearGradient>
		<path id="XMLID_99_" class="st28" d="M-60.9,412.1c-0.3-0.5-0.5-0.6-0.8-0.6s-0.5,0.2-0.5,0.5c0,0.1,0,0.2,0.1,0.3
			s0.2,0.2,0.5,0.3l0.5,0.2c0.3,0.2,0.6,0.3,0.8,0.5c0.3,0.3,0.5,0.7,0.5,1.2c0,0.6-0.2,1.1-0.6,1.5c-0.4,0.4-0.8,0.5-1.3,0.5
			c-0.7,0-1.2-0.3-1.6-0.9c-0.1-0.2-0.3-0.5-0.4-0.9l1.1-0.5c0.2,0.4,0.3,0.6,0.4,0.8c0.1,0.1,0.3,0.2,0.5,0.2
			c0.4,0,0.6-0.2,0.6-0.6c0-0.1,0-0.2-0.1-0.3s-0.3-0.2-0.5-0.3l-0.5-0.2c-0.8-0.3-1.1-0.9-1.1-1.7c0-0.6,0.2-1,0.6-1.4
			c0.3-0.3,0.8-0.5,1.2-0.5c0.8,0,1.3,0.4,1.8,1.4L-60.9,412.1z"/>
		
			<linearGradient id="XMLID_68_" gradientUnits="userSpaceOnUse" x1="-56.7" y1="385.9602" x2="-56.7" y2="379.6208" gradientTransform="matrix(1 0 0 -1 0 796)">
			<stop  offset="0" style="stop-color:#FAC223"/>
			<stop  offset="0.3568" style="stop-color:#FAC223"/>
			<stop  offset="1" style="stop-color:#F0811E"/>
		</linearGradient>
		<path id="XMLID_101_" class="st29" d="M-54,416.2h-1.3v-0.4c-0.4,0.4-0.9,0.6-1.4,0.6c-0.8,0-1.4-0.3-2-1
			c-0.5-0.6-0.7-1.3-0.7-2.1c0-1,0.3-1.7,0.9-2.4c0.5-0.5,1.1-0.8,1.8-0.8c0.5,0,0.9,0.2,1.4,0.6v-0.4h1.3V416.2z M-57.7,412.1
			c-0.2,0.3-0.3,0.7-0.3,1.2c0,0.6,0.1,1,0.4,1.3c0.3,0.3,0.6,0.5,1,0.5s0.8-0.2,1.1-0.6c0.2-0.3,0.3-0.7,0.3-1.2s-0.1-1-0.4-1.3
			c-0.3-0.3-0.6-0.5-1-0.5C-57.1,411.5-57.4,411.7-57.7,412.1z"/>
		
			<linearGradient id="XMLID_70_" gradientUnits="userSpaceOnUse" x1="-48.95" y1="385.9602" x2="-48.95" y2="379.8172" gradientTransform="matrix(1 0 0 -1 0 796)">
			<stop  offset="0" style="stop-color:#FAC223"/>
			<stop  offset="0.3568" style="stop-color:#FAC223"/>
			<stop  offset="1" style="stop-color:#F0811E"/>
		</linearGradient>
		<path id="XMLID_104_" class="st30" d="M-47.4,410.1c0.7,0,1.3,0.3,1.7,0.9c0.2,0.3,0.4,0.7,0.4,1.1c0,0.3,0.1,0.6,0.1,1v3.2h-1.3
			v-3.1c0-0.7-0.1-1.1-0.2-1.3c-0.1-0.2-0.3-0.3-0.6-0.3s-0.6,0.1-0.8,0.4c-0.1,0.2-0.2,0.7-0.2,1.4v3h-1.3v-3.1
			c0-0.7-0.1-1.1-0.2-1.3c-0.1-0.2-0.4-0.3-0.6-0.3c-0.3,0-0.6,0.1-0.8,0.4c-0.1,0.2-0.2,0.7-0.2,1.4v3h-1.3v-5.9h1.3v0.3
			c0.2-0.2,0.4-0.3,0.5-0.4c0.2-0.1,0.4-0.1,0.6-0.1c0.5,0,1,0.2,1.4,0.7C-48.5,410.3-48,410.1-47.4,410.1z"/>
		
			<linearGradient id="XMLID_72_" gradientUnits="userSpaceOnUse" x1="-41.7" y1="385.9602" x2="-41.7" y2="379.6208" gradientTransform="matrix(1 0 0 -1 0 796)">
			<stop  offset="0" style="stop-color:#FAC223"/>
			<stop  offset="0.3568" style="stop-color:#FAC223"/>
			<stop  offset="1" style="stop-color:#F0811E"/>
		</linearGradient>
		<path id="XMLID_106_" class="st31" d="M-39,416.2h-1.3v-0.4c-0.4,0.4-0.9,0.6-1.4,0.6c-0.8,0-1.4-0.3-2-1
			c-0.5-0.6-0.7-1.3-0.7-2.1c0-1,0.3-1.7,0.9-2.4c0.5-0.5,1.1-0.8,1.8-0.8c0.5,0,0.9,0.2,1.4,0.6v-0.4h1.3V416.2z M-42.7,412.1
			c-0.2,0.3-0.3,0.7-0.3,1.2c0,0.6,0.1,1,0.4,1.3c0.3,0.3,0.6,0.5,1,0.5s0.8-0.2,1.1-0.6c0.2-0.3,0.3-0.7,0.3-1.2s-0.1-1-0.4-1.3
			c-0.3-0.3-0.6-0.5-1-0.5C-42.1,411.5-42.4,411.7-42.7,412.1z"/>
	</g>
</g>
<g id="XMLID_71_">
	<path id="XMLID_4_" class="st32" d="M-208,378.3"/>
	
		<linearGradient id="XMLID_73_" gradientUnits="userSpaceOnUse" x1="-202.6176" y1="392.9082" x2="-193.3634" y2="392.9082" gradientTransform="matrix(1 0 0 -1 0 796)">
		<stop  offset="0" style="stop-color:#F0811E"/>
		<stop  offset="0.4975" style="stop-color:#FAC223"/>
		<stop  offset="1" style="stop-color:#FAC223"/>
	</linearGradient>
	<path id="XMLID_8_" class="st33" d="M-202,400.2c0,0,1.5-0.1,4.1,1.1c2.5,1.2,4.3-1.7,4.3-1.7l0.3,2.6c0,0-2.7,5.2-6.3,4.4
		C-204.5,405.7-202,400.2-202,400.2z"/>
	
		<linearGradient id="XMLID_74_" gradientUnits="userSpaceOnUse" x1="-209.9742" y1="404.55" x2="-191.5029" y2="404.55" gradientTransform="matrix(1 0 0 -1 0 796)">
		<stop  offset="0" style="stop-color:#129D37"/>
		<stop  offset="0.5025" style="stop-color:#007F37"/>
		<stop  offset="1" style="stop-color:#006837"/>
	</linearGradient>
	<path id="XMLID_5_" class="st34" d="M-208,378.3c0,0,0.3,5.3,11.2,10.8c10.9,5.5,1.6,15.6,1.6,15.6s3.7-6.7-6.9-10.5
		C-215.2,389.5-208,378.3-208,378.3z"/>
	
		<linearGradient id="XMLID_76_" gradientUnits="userSpaceOnUse" x1="-204.329" y1="387.75" x2="-193.1708" y2="387.75" gradientTransform="matrix(1 0 0 -1 0 796)">
		<stop  offset="0" style="stop-color:#FAC223"/>
		<stop  offset="0.5025" style="stop-color:#FAC223"/>
		<stop  offset="1" style="stop-color:#F0811E"/>
	</linearGradient>
	<path id="XMLID_6_" class="st35" d="M-202,400.2c0,0-2.6,4.3,4.4,7.1s3.5,9.1,3.5,9.1s-1.6-4-6.7-6.3
		C-208,406.8-202,400.2-202,400.2z"/>
	
		<linearGradient id="XMLID_78_" gradientUnits="userSpaceOnUse" x1="-209.9872" y1="404.55" x2="-193.5608" y2="404.55" gradientTransform="matrix(1 0 0 -1 0 796)">
		<stop  offset="0" style="stop-color:#006837"/>
		<stop  offset="0.4975" style="stop-color:#007F37"/>
		<stop  offset="1" style="stop-color:#129D37"/>
	</linearGradient>
	<path id="XMLID_11_" class="st36" d="M-195.2,404.7c0,0,0.3-0.4,0.8-1l0.2-0.3c1.5-4.8,1-8.2-8.1-13.2c-9-5-5.7-11.9-5.7-11.9
		s-7.2,11.2,6,15.9C-191.5,398-195.2,404.7-195.2,404.7z"/>
	
		<linearGradient id="XMLID_80_" gradientUnits="userSpaceOnUse" x1="-204.3291" y1="387.15" x2="-193.9482" y2="387.15" gradientTransform="matrix(1 0 0 -1 0 796)">
		<stop  offset="0" style="stop-color:#F0811E"/>
		<stop  offset="0.4975" style="stop-color:#FAC223"/>
		<stop  offset="1" style="stop-color:#FAC223"/>
	</linearGradient>
	<path id="XMLID_12_" class="st37" d="M-199.5,408.3c-5-2.3-4.3-5.2-3.4-6.9c-1.4,2.1-3.1,6.3,2.2,8.7c4.9,2.2,6.6,5.9,6.7,6.3
		C-193.8,414.9-193.7,411-199.5,408.3z"/>
	
		<linearGradient id="XMLID_81_" gradientUnits="userSpaceOnUse" x1="-227.5966" y1="506.235" x2="-222.4418" y2="506.235" gradientTransform="matrix(0.9885 0.1514 0.1514 -0.9885 -58.5014 913.6478)">
		<stop  offset="0" style="stop-color:#F0811E"/>
		<stop  offset="0.4975" style="stop-color:#FAC223"/>
		<stop  offset="1" style="stop-color:#FAC223"/>
	</linearGradient>
	<polygon id="XMLID_7_" class="st38" points="-204.1,377.9 -202.3,376.9 -203.3,378.8 -201.8,380.3 -203.8,379.9 -204.6,381.8 
		-204.9,379.7 -206.9,379.4 -205.1,378.5 -205.5,376.4 	"/>
	
		<linearGradient id="XMLID_83_" gradientUnits="userSpaceOnUse" x1="-223.3386" y1="502.9099" x2="-218.8494" y2="502.9099" gradientTransform="matrix(0.9885 0.1514 0.1514 -0.9885 -58.5014 913.6478)">
		<stop  offset="0" style="stop-color:#F0811E"/>
		<stop  offset="0.4975" style="stop-color:#FAC223"/>
		<stop  offset="1" style="stop-color:#FAC223"/>
	</linearGradient>
	<polygon id="XMLID_9_" class="st39" points="-200.7,382 -199.2,381.1 -200,382.7 -198.7,384 -200.5,383.7 -201.2,385.4 
		-201.4,383.5 -203.2,383.3 -201.6,382.5 -201.9,380.6 	"/>
	
		<linearGradient id="XMLID_84_" gradientUnits="userSpaceOnUse" x1="-219.106" y1="500.2496" x2="-215.8843" y2="500.2496" gradientTransform="matrix(0.9885 0.1514 0.1514 -0.9885 -58.5014 913.6478)">
		<stop  offset="0" style="stop-color:#F0811E"/>
		<stop  offset="0.4975" style="stop-color:#FAC223"/>
		<stop  offset="1" style="stop-color:#FAC223"/>
	</linearGradient>
	<polygon id="XMLID_13_" class="st40" points="-197.6,385.5 -196.5,384.8 -197.1,386 -196.2,386.9 -197.4,386.7 -198,387.9 
		-198.1,386.6 -199.4,386.4 -198.2,385.8 -198.5,384.5 	"/>
	
		<linearGradient id="XMLID_85_" gradientUnits="userSpaceOnUse" x1="-215.9769" y1="498.5986" x2="-213.8291" y2="498.5986" gradientTransform="matrix(0.9885 0.1514 0.1514 -0.9885 -58.5014 913.6478)">
		<stop  offset="0" style="stop-color:#F0811E"/>
		<stop  offset="0.4975" style="stop-color:#FAC223"/>
		<stop  offset="1" style="stop-color:#FAC223"/>
	</linearGradient>
	<polygon id="XMLID_14_" class="st41" points="-195.3,387.8 -194.6,387.3 -195,388.1 -194.4,388.7 -195.2,388.6 -195.6,389.4 
		-195.7,388.5 -196.5,388.4 -195.8,388 -195.9,387.1 	"/>
	
		<linearGradient id="XMLID_87_" gradientUnits="userSpaceOnUse" x1="-213.2874" y1="470.6189" x2="-210.4953" y2="470.6189" gradientTransform="matrix(0.9885 0.1514 0.1514 -0.9885 -58.5014 913.6478)">
		<stop  offset="0" style="stop-color:#129D37"/>
		<stop  offset="0.5025" style="stop-color:#007F37"/>
		<stop  offset="1" style="stop-color:#006837"/>
	</linearGradient>
	<polygon id="XMLID_15_" class="st42" points="-196.6,415.7 -195.6,415.2 -196.1,416.2 -195.3,417 -196.4,416.8 -196.9,417.8 
		-197,416.7 -198.1,416.5 -197.1,416 -197.3,414.9 	"/>
	
		<linearGradient id="XMLID_88_" gradientUnits="userSpaceOnUse" x1="-215.9723" y1="472.7641" x2="-213.1801" y2="472.7641" gradientTransform="matrix(0.9885 0.1514 0.1514 -0.9885 -58.5014 913.6478)">
		<stop  offset="0" style="stop-color:#129D37"/>
		<stop  offset="0.5025" style="stop-color:#007F37"/>
		<stop  offset="1" style="stop-color:#006837"/>
	</linearGradient>
	<polygon id="XMLID_16_" class="st43" points="-198.9,413.2 -198,412.6 -198.5,413.7 -197.7,414.5 -198.7,414.3 -199.2,415.3 
		-199.4,414.2 -200.4,414 -199.5,413.5 -199.7,412.4 	"/>
	
		<linearGradient id="XMLID_89_" gradientUnits="userSpaceOnUse" x1="-218.7628" y1="474.1844" x2="-215.9707" y2="474.1844" gradientTransform="matrix(0.9885 0.1514 0.1514 -0.9885 -58.5014 913.6478)">
		<stop  offset="0" style="stop-color:#129D37"/>
		<stop  offset="0.5025" style="stop-color:#007F37"/>
		<stop  offset="1" style="stop-color:#006837"/>
	</linearGradient>
	<polygon id="XMLID_17_" class="st44" points="-201.4,411.4 -200.5,410.8 -201,411.8 -200.2,412.6 -201.3,412.4 -201.7,413.5 
		-201.9,412.3 -203,412.2 -202,411.7 -202.2,410.5 	"/>
	
		<linearGradient id="XMLID_91_" gradientUnits="userSpaceOnUse" x1="-221.7629" y1="475.5397" x2="-218.9707" y2="475.5397" gradientTransform="matrix(0.9885 0.1514 0.1514 -0.9885 -58.5014 913.6478)">
		<stop  offset="0" style="stop-color:#129D37"/>
		<stop  offset="0.5025" style="stop-color:#007F37"/>
		<stop  offset="1" style="stop-color:#006837"/>
	</linearGradient>
	<polygon id="XMLID_18_" class="st45" points="-204.2,409.5 -203.3,409 -203.8,410 -203,410.8 -204,410.6 -204.5,411.7 
		-204.7,410.5 -205.7,410.4 -204.7,409.8 -205,408.7 	"/>
	
		<linearGradient id="XMLID_92_" gradientUnits="userSpaceOnUse" x1="-259.1015" y1="485.181" x2="-253.7319" y2="485.181" gradientTransform="matrix(1.0544 0.1614 0.153 -0.9991 -9.152 923.8124)">
		<stop  offset="0" style="stop-color:#129D37"/>
		<stop  offset="0.5025" style="stop-color:#007F37"/>
		<stop  offset="1" style="stop-color:#006837"/>
	</linearGradient>
	<polygon id="XMLID_20_" class="st46" points="-205.1,396.4 -203.2,395.3 -204.2,397.3 -202.6,398.9 -204.7,398.4 -205.7,400.5 
		-206,398.2 -208.2,397.9 -206.2,397 -206.6,394.7 	"/>
</g>
</svg>
